<svg width="35" height="36" viewBox="0 0 35 36" fill="none" xmlns="http://www.w3.org/2000/svg">
<path d="M30.625 2.6875C31.8331 2.6875 32.8125 3.66688 32.8125 4.875V31.125C32.8125 32.3331 31.8331 33.3125 30.625 33.3125H4.375C3.16688 33.3125 2.1875 32.3331 2.1875 31.125V4.875C2.1875 3.66688 3.16688 2.6875 4.375 2.6875H30.625ZM4.375 0.5C1.95875 0.5 0 2.45875 0 4.875V31.125C0 33.5412 1.95875 35.5 4.375 35.5H30.625C33.0412 35.5 35 33.5412 35 31.125V4.875C35 2.45875 33.0412 0.5 30.625 0.5H4.375Z" fill="#F8FAFC"/>
<path d="M17.5 9.25C18.1041 9.25 18.5938 9.73969 18.5938 10.3438V16.9062H25.1562C25.7603 16.9062 26.25 17.3959 26.25 18C26.25 18.6041 25.7603 19.0938 25.1562 19.0938H18.5938V25.6562C18.5938 26.2603 18.1041 26.75 17.5 26.75C16.8959 26.75 16.4062 26.2603 16.4062 25.6562V19.0938H9.84375C9.23969 19.0938 8.75 18.6041 8.75 18C8.75 17.3959 9.23969 16.9062 9.84375 16.9062H16.4062V10.3438C16.4062 9.73969 16.8959 9.25 17.5 9.25Z" fill="#F8FAFC"/>
</svg>
