<svg width="21" height="20" viewBox="0 0 21 20" fill="none" xmlns="http://www.w3.org/2000/svg">
<path d="M10.1814 5C10.5266 5 10.8064 5.27982 10.8064 5.625V9.375H14.5564C14.9016 9.375 15.1814 9.65482 15.1814 10C15.1814 10.3452 14.9016 10.625 14.5564 10.625H10.8064V14.375C10.8064 14.7202 10.5266 15 10.1814 15C9.83622 15 9.5564 14.7202 9.5564 14.375V10.625H5.8064C5.46122 10.625 5.1814 10.3452 5.1814 10C5.1814 9.65482 5.46122 9.375 5.8064 9.375H9.5564V5.625C9.5564 5.27982 9.83622 5 10.1814 5Z" fill="#020817" stroke="#020817" stroke-linecap="round"/>
</svg>
