<svg width="30" height="30" viewBox="0 0 30 30" fill="none" xmlns="http://www.w3.org/2000/svg">
<path d="M2.8125 2.8125C2.8125 2.29473 3.23223 1.875 3.75 1.875H26.25C26.7678 1.875 27.1875 2.29473 27.1875 2.8125V6.5625C27.1875 6.7941 27.1018 7.01751 26.9468 7.18965L18.75 16.2973V25.3125C18.75 25.716 18.4918 26.0743 18.109 26.2019L12.484 28.0769C12.1981 28.1722 11.8838 28.1242 11.6393 27.948C11.3949 27.7718 11.25 27.4889 11.25 27.1875V16.2973L3.05316 7.18965C2.89823 7.01751 2.8125 6.7941 2.8125 6.5625V2.8125ZM4.6875 3.75V6.20275L12.8843 15.3103C13.0393 15.4825 13.125 15.7059 13.125 15.9375V25.8868L16.875 24.6368V15.9375C16.875 15.7059 16.9607 15.4825 17.1157 15.3103L25.3125 6.20275V3.75H4.6875Z" fill="#F8FAFC"/>
</svg>
