<svg width="161" height="149" viewBox="0 0 161 149" fill="none" xmlns="http://www.w3.org/2000/svg">
<path d="M108.033 105.628H50.6364C45.8119 105.628 41.887 101.708 41.887 96.8896V39.5661C41.887 34.7477 45.8119 30.8278 50.6364 30.8278H108.033C112.857 30.8278 116.782 34.7477 116.782 39.5661V96.8896C116.782 101.708 112.857 105.628 108.033 105.628ZM50.6364 32.2259C46.5774 32.2259 43.2869 35.5122 43.2869 39.5661V96.8896C43.2869 100.943 46.5774 104.23 50.6364 104.23H90.8411C104.395 104.23 115.382 93.2563 115.382 79.7198V39.5661C115.382 35.5122 112.092 32.2259 108.033 32.2259L50.6364 32.2259Z" fill="#F2F2F2"/>
<path d="M56.8241 38.187C54.1076 38.187 51.8977 40.3941 51.8977 43.1071V50.8083C51.8977 53.5213 54.1076 55.7284 56.8241 55.7284H64.5351C67.2516 55.7284 69.4615 53.5213 69.4615 50.8083V43.1071C69.4615 40.3941 67.2516 38.187 64.5351 38.187H56.8241Z" fill="#F2F2F2"/>
<path d="M56.8241 59.8667C54.1076 59.8667 51.8977 62.0738 51.8977 64.7868V72.488C51.8977 75.2011 54.1076 77.4082 56.8241 77.4082H64.5351C67.2516 77.4082 69.4615 75.2011 69.4615 72.488V64.7868C69.4615 62.0738 67.2516 59.8667 64.5351 59.8667H56.8241Z" fill="#F2F2F2"/>
<path d="M56.8241 81.5464C54.1076 81.5464 51.8977 83.7535 51.8977 86.4666V94.1677C51.8977 96.8808 54.1076 99.0879 56.8241 99.0879H64.5351C67.2516 99.0879 69.4615 96.8808 69.4615 94.1677V86.4666C69.4615 83.7535 67.2516 81.5464 64.5351 81.5464H56.8241Z" fill="#F2F2F2"/>
<path d="M61.9377 19.3979C58.5148 19.3979 55.7302 22.1789 55.7302 25.5975V35.3011C55.7302 38.7197 58.5148 41.5007 61.9377 41.5007H71.6537C75.0766 41.5007 77.8611 38.7197 77.8611 35.3011V25.5975C77.8611 22.1789 75.0766 19.3979 71.6537 19.3979H61.9377Z" fill="#64748B"/>
<path d="M93.9252 46.5156C90.5023 46.5156 87.7178 49.2966 87.7178 52.7152V62.4188C87.7178 65.8374 90.5023 68.6184 93.9252 68.6184H103.641C107.064 68.6184 109.849 65.8374 109.849 62.4188V52.7152C109.849 49.2966 107.064 46.5156 103.641 46.5156H93.9252Z" fill="#64748B"/>
<path d="M80.0185 144.187L78.0447 144.17L77.1709 136.389L80.084 136.414L80.0185 144.187Z" fill="#D2B1B6"/>
<path d="M73.6961 147.322C73.6918 147.807 74.0834 148.206 74.571 148.211L78.4954 148.243L79.1824 146.853L79.4348 148.25L80.9155 148.264L80.5416 143.278L80.0264 143.244L77.9251 143.099L77.2472 143.054L77.2353 144.464L74.0828 146.6C73.8429 146.763 73.6985 147.032 73.6961 147.322Z" fill="#334155"/>
<path d="M90.0612 144.187L88.0874 144.17L87.2136 136.389L90.1268 136.414L90.0612 144.187Z" fill="#D2B1B6"/>
<path d="M83.7388 147.322C83.7345 147.807 84.1261 148.206 84.6137 148.211L88.5382 148.243L89.2252 146.853L89.4775 148.25L90.9583 148.264L90.5844 143.278L90.0692 143.244L87.9678 143.099L87.2899 143.054L87.278 144.464L84.1255 146.6C83.8856 146.763 83.7412 147.032 83.7388 147.322Z" fill="#334155"/>
<path d="M72.2731 81.2782L80.274 81.5305L87.8537 83.2128C87.8537 83.2128 87.0958 84.138 89.6223 86.6614C89.6223 86.6614 92.9911 92.5493 90.633 98.2689L89.6223 121.148C89.6223 121.148 92.569 137.276 90.3176 142.408L87.342 142.594L82.307 121.334L79.8529 98.4372L78.6738 120.979C78.6738 120.979 83.1845 136.452 80.3362 142.594L77.1135 142.408L71.5994 120.979C71.5994 120.979 69.2412 96.2502 69.5781 91.5399C69.915 86.8296 72.2731 81.2782 72.2731 81.2782Z" fill="#334155"/>
<path d="M99.1416 45.1264C98.0478 45.4092 97.3908 46.5241 97.674 47.6164C97.8037 48.1169 98.1095 48.5241 98.5068 48.7931L98.5067 48.7959L98.3515 52.5494L101.227 53.8786L101.457 48.1027L101.437 48.1033C101.686 47.6596 101.773 47.1236 101.635 46.5921C101.352 45.4998 100.235 44.8435 99.1416 45.1264Z" fill="#D2B1B6"/>
<path d="M83.0678 58.5222C82.4636 57.9241 82.1131 57.1132 82.1 56.2314C82.0824 55.0485 82.6759 53.9748 83.6877 53.3595C84.8528 52.6507 86.3098 52.7225 87.3996 53.5419L96.4307 60.333L98.0399 50.5499L101.495 51.6606L100.67 64.3996C100.613 65.2907 100.108 66.0757 99.3215 66.4995C98.5345 66.9232 97.6008 66.9126 96.8237 66.4711L83.7724 59.0551C83.5102 58.9061 83.2741 58.7265 83.0678 58.5222Z" fill="#475569"/>
<path d="M69.2972 39.6542C69.8745 40.6241 69.5552 41.8778 68.584 42.4544C68.139 42.7186 67.6348 42.7928 67.1631 42.7045L67.1612 42.7065L64.6254 45.4811L61.646 44.4028L65.5547 40.1396L65.5685 40.1542C65.7042 39.6637 66.0209 39.2225 66.4934 38.9419C67.4645 38.3654 68.7198 38.6842 69.2972 39.6542Z" fill="#D2B1B6"/>
<path d="M70.3924 60.3527L55.8963 56.4419C55.0332 56.209 54.3626 55.56 54.1025 54.7057C53.8423 53.8514 54.0376 52.9394 54.6248 52.266L63.0198 42.6398L66.2562 44.2804L60.5024 52.3593L71.7032 53.8869C73.0547 54.0713 74.14 55.0449 74.4678 56.3675C74.7525 57.5159 74.4171 58.6957 73.5707 59.5234C72.9398 60.1404 72.1192 60.4698 71.2686 60.4697C70.978 60.4697 70.6837 60.4312 70.3924 60.3527Z" fill="#475569"/>
<path d="M91.0594 84.644L70.7883 85.5727C70.2315 84.7284 70.3823 83.4587 71.162 81.8688C74.1059 75.8657 71.8701 64.5092 70.3661 58.5958C69.9441 56.9367 71.0769 55.2872 72.7824 55.1169L74.6937 54.926L76.4605 49.5396H82.6481L85.2152 52.4686L89.5716 55.1117C88.7787 63.2693 85.3999 74.7884 90.2134 80.5652C91.2661 81.8287 91.5646 83.1949 91.0594 84.644Z" fill="#475569"/>
<path d="M78.7672 49.664C82.0958 49.664 84.7942 46.9691 84.7942 43.6447C84.7942 40.3203 82.0958 37.6254 78.7672 37.6254C75.4386 37.6254 72.7402 40.3203 72.7402 43.6447C72.7402 46.9691 75.4386 49.664 78.7672 49.664Z" fill="#D2B1B6"/>
<path d="M85.5871 39.7917C86.4257 36.7384 77.2865 34.1201 75.5105 36.5789C75.2635 36.2294 74.3509 36.017 73.9321 36.1243C73.5134 36.2315 73.1612 36.4996 72.8176 36.7591C72.3452 37.1215 71.8556 37.4969 71.5657 38.018C71.2736 38.537 71.2285 39.2448 71.6215 39.6952C71.9329 40.0533 72.48 41.9566 72.9482 42.051C73.2746 42.1175 73.5494 42.1711 73.7856 42.2097C73.9961 41.903 74.5328 41.5177 74.4941 41.1467C74.8119 41.3569 74.6958 41.7267 74.6317 42.1046C74.4184 43.3631 69.6112 53.105 72.3645 50.2343C72.6372 50.3951 72.9744 50.5452 73.3631 50.6825C74.0223 49.6895 74.5635 48.5185 74.9199 47.2939L74.9225 47.3165C75.0452 48.3807 75.8239 49.254 76.8542 49.5521C80.9871 50.7479 84.3301 48.9932 85.4802 45.8289C85.0592 44.9753 84.8757 45.0681 84.9135 45.0427C85.439 44.6889 86.1613 44.9203 86.3872 45.5117C86.4538 45.686 86.5143 45.8349 86.5667 45.9469C87.1659 43.8065 87.8784 44.1154 85.5871 39.7917Z" fill="#2F2E41"/>
<path d="M82.736 37.5764L82.3139 35.4209C82.2784 35.2397 82.2447 35.0431 82.3265 34.8775C82.4316 34.6648 82.7018 34.5766 82.9369 34.6105C83.172 34.6444 83.3478 34.8589 83.5817 34.9002C84.395 35.0438 85.4699 34.2416 85.7613 36.2711C85.8828 37.1172 87.2347 37.2066 87.6862 37.9328C88.1377 38.6591 88.1932 39.7073 87.577 40.3006C87.0849 40.7744 86.2945 40.8291 85.6554 40.5871C85.0162 40.345 84.5032 39.8561 84.0551 39.3405C83.6071 38.8249 83.2013 38.267 82.6845 37.8202" fill="#2F2E41"/>
<path d="M85.9091 40.855C84.26 40.6249 83.1359 40.0259 82.568 39.0747C81.8249 37.8296 82.3227 36.4586 82.3442 36.4008L82.6928 36.5302C82.6882 36.5428 82.2366 37.7978 82.8895 38.8877C83.3974 39.7355 84.4307 40.2737 85.9605 40.4871L85.9091 40.855Z" fill="#334155"/>
<path d="M93.6482 17.5641C88.7999 17.5641 84.855 13.6242 84.855 8.78207C84.855 3.93992 88.7999 0 93.6482 0C98.4965 0 102.441 3.93992 102.441 8.78207C102.441 13.6242 98.4965 17.5641 93.6482 17.5641ZM93.6482 3.51283C90.7389 3.51283 88.3723 5.87644 88.3723 8.78207C88.3723 11.6877 90.7389 14.0513 93.6482 14.0513C96.5575 14.0513 98.9241 11.6877 98.9241 8.78207C98.9241 5.87644 96.5575 3.51283 93.6482 3.51283Z" fill="#F8FAFC"/>
<path d="M107.177 23.5323C106.746 23.5323 106.314 23.3754 105.975 23.0572L97.722 15.3326C97.0127 14.6696 96.9767 13.5582 97.6413 12.8506C98.3043 12.1405 99.4171 12.1053 100.126 12.77L108.38 20.4946C109.089 21.1576 109.125 22.269 108.46 22.9766C108.114 23.3462 107.646 23.5323 107.177 23.5323Z" fill="#F8FAFC"/>
</svg>
